<svg width="35" height="32" viewBox="0 0 35 32" fill="none" xmlns="http://www.w3.org/2000/svg">
<path d="M17.36 19.4816C18.739 19.264 18.473 21.4016 17.577 21.4656C16.695 21.5232 16.31 19.648 17.36 19.4816Z" fill="#FEFEFD"/>
<path d="M17.437 25.7984C18.501 25.6832 18.529 27.1168 17.941 27.6224C17.542 27.9616 17.108 27.7376 16.905 27.3472C16.618 26.8032 16.611 25.888 17.437 25.7984Z" fill="#FEFEFD"/>
<path d="M15.491 16.3072C16.408 16.2624 16.464 17.2864 16.156 17.856C15.82 18.4832 15.162 18.4192 14.868 17.7984C14.616 17.2544 14.658 16.3456 15.491 16.3072Z" fill="#FEFEFD"/>
<path d="M13.391 19.4816C14.777 19.3088 14.441 21.4144 13.573 21.4656C12.705 21.5168 12.334 19.616 13.391 19.4816Z" fill="#FEFEFD"/>
<path d="M16.996 13.312C17.171 13.1712 17.493 13.1328 17.717 13.1712C18.718 13.344 18.34 15.168 17.5 15.1488C16.779 15.1296 16.457 13.7472 16.996 13.312Z" fill="#FEFEFD"/>
<path d="M15.295 22.656C16.429 22.4448 16.555 23.7504 16.023 24.3712C15.064 25.4848 14.07 22.8864 15.295 22.656Z" fill="#FEFEFD"/>
<path d="M11.48 16.3072C12.74 16.2432 12.418 18.2016 11.62 18.2912C10.822 18.3808 10.605 17.28 10.794 16.768C10.892 16.512 11.179 16.32 11.473 16.3072H11.48Z" fill="#FEFEFD"/>
<path d="M13.349 13.1648C14.784 12.9408 14.434 15.1104 13.566 15.1424C12.712 15.1744 12.334 13.3248 13.349 13.1648Z" fill="#FEFEFD"/>
<path d="M21.623 10.4C19.53 10.3232 17.381 10.464 15.281 10.4C15.26 10.4 15.232 10.4 15.204 10.4128C14.588 10.4128 13.979 10.4128 13.377 10.432C8.575 10.6048 5.719 14.7392 7.805 18.7392L14.112 28.7424C15.281 30.5152 18.025 31.072 19.845 29.7792V29.7344C20.251 29.4592 20.608 29.1136 20.881 28.704L27.188 18.7008C29.274 14.7008 26.418 10.5664 21.616 10.3936L21.623 10.4ZM11.627 18.2912C10.871 18.3744 10.612 17.28 10.801 16.768C10.899 16.512 11.186 16.32 11.48 16.3072C12.74 16.2432 12.418 18.2016 11.62 18.2912H11.627ZM13.349 13.1648C14.784 12.9408 14.434 15.1104 13.566 15.1424C12.712 15.1744 12.334 13.3248 13.349 13.1648ZM13.566 21.4656C12.684 21.5104 12.327 19.616 13.384 19.4816C14.77 19.3088 14.434 21.4144 13.566 21.4656ZM20.132 17.7664C19.95 18.1568 19.628 18.3232 19.327 18.2464C18.963 18.112 18.76 17.6384 18.739 17.2608C18.704 16.6016 19.103 16.1984 19.845 16.3712V16.3584C20.342 16.5952 20.342 17.312 20.132 17.7728V17.7664ZM17.423 21.4272C17.36 21.4272 17.297 21.408 17.241 21.3824C16.611 21.0304 16.45 19.616 17.353 19.4752C17.619 19.4304 17.829 19.4752 17.976 19.584C18.578 20.0576 18.186 21.472 17.416 21.4208L17.423 21.4272ZM17.493 15.1104C17.353 15.1104 17.234 15.0656 17.122 14.9888C16.688 14.6112 16.569 13.6576 16.996 13.312C17.171 13.1712 17.493 13.1328 17.717 13.1712C17.836 13.1904 17.941 13.2352 18.025 13.2992C18.522 13.7536 18.2 15.0976 17.493 15.1104ZM16.905 27.3472C16.618 26.8032 16.611 25.888 17.437 25.7984C17.626 25.7792 17.787 25.8048 17.913 25.8688C18.389 26.144 18.347 26.8608 18.102 27.3152C17.92 27.6608 17.563 27.872 17.206 27.6864C17.087 27.6096 16.982 27.488 16.905 27.3472ZM15.491 16.3072C15.547 16.3072 15.603 16.3072 15.652 16.3072C16.072 16.384 16.289 16.7296 16.261 17.2224C16.233 17.7344 15.869 18.4256 15.218 18.208C15.078 18.1248 14.959 17.9904 14.868 17.7984C14.616 17.2544 14.658 16.3456 15.491 16.3072ZM15.295 22.656C15.477 22.624 15.638 22.6304 15.771 22.6624C16.226 22.816 16.359 23.328 16.198 23.872C16.072 24.3136 15.722 24.7296 15.183 24.512C14.658 24.096 14.448 22.8096 15.288 22.656H15.295ZM19.544 24.608C19.159 24.6144 18.9 24.2752 18.795 23.904C18.585 23.1616 18.907 22.4896 19.845 22.6816V22.6624C20.629 22.976 20.202 24.4928 19.544 24.6016V24.608ZM21.434 21.4336C20.559 21.3888 20.23 19.2832 21.616 19.4496C22.673 19.584 22.316 21.4784 21.434 21.4336ZM21.434 15.1104C20.559 15.072 20.216 12.9088 21.651 13.1328C22.673 13.2928 22.288 15.1488 21.434 15.1104ZM23.373 18.2528C22.575 18.1632 22.26 16.2112 23.513 16.2688C23.807 16.2816 24.094 16.4736 24.192 16.7296C24.388 17.2416 24.122 18.336 23.366 18.2528H23.373Z" fill="#E82133"/>
<path d="M25.823 4.4352C25.781 4.384 25.109 4.3968 24.976 4.4032C23.275 4.4416 21.658 4.6976 20.496 5.9264C20.272 6.1632 20.132 6.4384 19.936 6.6688C19.915 6.6944 19.936 6.7264 19.866 6.7136C19.852 6.1184 19.803 5.5296 19.642 4.9664C19.39 4.064 18.872 3.1552 18.298 2.3936C18.165 2.2208 17.773 1.7024 17.626 1.5936C17.605 1.5808 17.577 1.5616 17.549 1.5552C17.528 1.536 17.507 1.5232 17.5 1.5232C17.465 1.5168 17.416 1.5424 17.381 1.5616C17.234 1.6768 16.842 2.1888 16.709 2.3616C16.128 3.1232 15.617 4.032 15.365 4.9344C15.204 5.5168 15.148 6.1312 15.141 6.752C15.071 6.7648 15.092 6.7328 15.071 6.7072C14.875 6.4768 14.735 6.2016 14.511 5.9648C13.349 4.7424 11.732 4.4864 10.031 4.4416C9.905 4.4416 9.226 4.4224 9.184 4.4736C9.093 6.7008 10.227 9.344 13.006 9.536H19.859C19.859 9.5232 19.859 9.5168 19.859 9.504H22.015C24.794 9.3184 25.921 6.6688 25.837 4.4416L25.823 4.4352Z" fill="#197E43"/>
<path d="M17.64 19.4496C16.261 19.232 16.527 21.3696 17.423 21.4336C18.305 21.4912 18.69 19.616 17.64 19.4496Z" fill="#FEFEFD"/>
<path d="M17.563 25.7664C16.499 25.6512 16.471 27.0848 17.059 27.5904C17.647 28.096 17.892 27.7056 18.095 27.3152C18.382 26.7712 18.389 25.856 17.563 25.7664Z" fill="#FEFEFD"/>
<path d="M19.509 16.2752C18.592 16.2304 18.536 17.2544 18.844 17.824C19.18 18.4512 19.838 18.3872 20.132 17.7664C20.384 17.2224 20.342 16.3136 19.509 16.2752Z" fill="#FEFEFD"/>
<path d="M21.609 19.4496C20.223 19.2768 20.559 21.3824 21.427 21.4336C22.309 21.4784 22.666 19.584 21.609 19.4496Z" fill="#FEFEFD"/>
<path d="M18.004 13.2736C17.829 13.1328 17.507 13.0944 17.283 13.1328C16.282 13.3056 16.66 15.1296 17.5 15.1104C18.221 15.0912 18.543 13.7088 18.004 13.2736Z" fill="#FEFEFD"/>
<path d="M19.705 22.624C18.571 22.4128 18.445 23.7184 18.977 24.3392C19.936 25.4528 20.93 22.8544 19.705 22.624Z" fill="#FEFEFD"/>
<path d="M23.52 16.2752C22.26 16.2112 22.582 18.1696 23.38 18.2592C24.178 18.3488 24.395 17.248 24.206 16.736C24.108 16.48 23.821 16.288 23.527 16.2752H23.52Z" fill="#FEFEFD"/>
<path d="M21.651 13.1328C20.216 12.9088 20.566 15.0784 21.434 15.1104C22.288 15.1424 22.666 13.2928 21.651 13.1328Z" fill="#FEFEFD"/>
</svg>
