
<svg width="26" height="24" viewBox="0 0 26 24" fill="none" xmlns="http://www.w3.org/2000/svg">
<g clip-path="url(#clip0_2615_1655)">
<path d="M19.5 22.5C18.5358 22.5 17.5933 22.2361 16.7916 21.7416C15.9899 21.2471 15.3651 20.5443 14.9961 19.7221C14.6271 18.8998 14.5306 17.995 14.7187 17.1221C14.9068 16.2492 15.3711 15.4474 16.0529 14.818C16.7346 14.1887 17.6033 13.7601 18.5489 13.5865C19.4946 13.4128 20.4748 13.5019 21.3656 13.8425C22.2564 14.1831 23.0177 14.7599 23.5534 15.4999C24.0891 16.24 24.375 17.11 24.375 18C24.3736 19.1931 23.8595 20.3369 22.9456 21.1805C22.0316 22.0241 20.7925 22.4987 19.5 22.5ZM19.5 15C18.8572 15 18.2289 15.1759 17.6944 15.5056C17.1599 15.8352 16.7434 16.3038 16.4974 16.852C16.2514 17.4001 16.187 18.0033 16.3125 18.5853C16.4379 19.1672 16.7474 19.7018 17.2019 20.1213C17.6564 20.5409 18.2355 20.8266 18.866 20.9424C19.4964 21.0581 20.1499 20.9987 20.7437 20.7716C21.3376 20.5446 21.8452 20.1601 22.2023 19.6667C22.5594 19.1734 22.75 18.5933 22.75 18C22.749 17.2046 22.4063 16.4421 21.797 15.8797C21.1877 15.3173 20.3617 15.0009 19.5 15Z" fill="white"/>
<path d="M9.75 11.6925L7.64562 9.75L6.5 10.8075L9.75 13.8075L15.4375 8.5575L14.2919 7.5L9.75 11.6925Z" fill="white"/>
<path d="M11.375 18C9.76803 18 8.19715 17.5601 6.861 16.736C5.52485 15.9119 4.48345 14.7406 3.86848 13.3701C3.25352 11.9997 3.09262 10.4917 3.40612 9.03683C3.71963 7.58197 4.49346 6.2456 5.62976 5.1967C6.76606 4.14781 8.2138 3.4335 9.7899 3.14411C11.366 2.85473 12.9997 3.00325 14.4843 3.57091C15.969 4.13857 17.2379 5.09986 18.1307 6.33323C19.0235 7.5666 19.5 9.01664 19.5 10.5H21.125C21.125 8.71997 20.5532 6.97991 19.4818 5.49987C18.4105 4.01983 16.8877 2.86628 15.1062 2.18509C13.3246 1.5039 11.3642 1.32567 9.47287 1.67294C7.58156 2.0202 5.84428 2.87737 4.48071 4.13604C3.11715 5.39472 2.18855 6.99836 1.81235 8.74419C1.43614 10.49 1.62922 12.2996 2.36718 13.9442C3.10513 15.5887 4.35482 16.9943 5.95819 17.9832C7.56157 18.9722 9.44664 19.5 11.375 19.5V18Z" fill="white"/>
</g>
<defs>
<clipPath id="clip0_2615_1655">
<rect width="26" height="24" fill="white"/>
</clipPath>
</defs>
</svg>
