<svg width="22" height="23" viewBox="0 0 22 23" fill="none" xmlns="http://www.w3.org/2000/svg">
    <g clip-path="url(#clip0_2644_68)">
        <path
            d="M13.6278 16.8778H16.1944C16.3079 16.8778 16.4167 16.8327 16.4969 16.7525C16.5771 16.6723 16.6222 16.5635 16.6222 16.45V13.0278C16.6222 12.9143 16.5771 12.8055 16.4969 12.7253C16.4167 12.6451 16.3079 12.6 16.1944 12.6H13.6278C13.5143 12.6 13.4055 12.6451 13.3253 12.7253C13.2451 12.8055 13.2 12.9143 13.2 13.0278V16.45C13.2 16.5635 13.2451 16.6723 13.3253 16.7525C13.4055 16.8327 13.5143 16.8778 13.6278 16.8778ZM13.2 19.8722C13.2 19.9857 13.2451 20.0945 13.3253 20.1747C13.4055 20.2549 13.5143 20.3 13.6278 20.3H16.1944C16.3079 20.3 16.4167 20.2549 16.4969 20.1747C16.5771 20.0945 16.6222 19.9857 16.6222 19.8722V18.1611C16.6222 18.0477 16.5771 17.9389 16.4969 17.8586C16.4167 17.7784 16.3079 17.7333 16.1944 17.7333H13.6278C13.5143 17.7333 13.4055 17.7784 13.3253 17.8586C13.2451 17.9389 13.2 18.0477 13.2 18.1611V19.8722ZM17.4778 19.8722C17.4778 19.9857 17.5228 20.0945 17.6031 20.1747C17.6833 20.2549 17.7921 20.3 17.9056 20.3H20.4722C20.5857 20.3 20.6945 20.2549 20.7747 20.1747C20.8549 20.0945 20.9 19.9857 20.9 19.8722V16.8778C20.9 16.7643 20.8549 16.6555 20.7747 16.5753C20.6945 16.4951 20.5857 16.45 20.4722 16.45H17.9056C17.7921 16.45 17.6833 16.4951 17.6031 16.5753C17.5228 16.6555 17.4778 16.7643 17.4778 16.8778V19.8722ZM17.9056 15.5945H20.4722C20.5857 15.5945 20.6945 15.5494 20.7747 15.4692C20.8549 15.3889 20.9 15.2801 20.9 15.1667V13.0278C20.9 12.9143 20.8549 12.8055 20.7747 12.7253C20.6945 12.6451 20.5857 12.6 20.4722 12.6H17.9056C17.7921 12.6 17.6833 12.6451 17.6031 12.7253C17.5228 12.8055 17.4778 12.9143 17.4778 13.0278V15.1667C17.4778 15.2801 17.5228 15.3889 17.6031 15.4692C17.6833 15.5494 17.7921 15.5945 17.9056 15.5945Z"
            fill="black" fill-opacity="0.6" />
        <path
            d="M12.0996 14.333H5.73145C5.14539 14.3331 4.67016 14.8085 4.66992 15.3945V16.2373C4.66992 16.5536 4.76871 16.8625 4.95215 17.1201L5.18066 17.4189C6.36992 18.8712 8.25925 19.667 11 19.667C11.383 19.667 11.7494 19.6498 12.0996 19.6191V20.624C11.7452 20.6527 11.3785 20.667 11 20.667L10.4219 20.6553C7.67322 20.5439 5.60443 19.6245 4.27246 17.8828L4.1377 17.7002C3.87165 17.3267 3.71324 16.8884 3.67773 16.4336L3.66992 16.2373V15.3945C3.67014 14.3273 4.4812 13.4484 5.52051 13.3428L5.73145 13.333H12.0996V14.333ZM11.2363 2.34277C13.6575 2.46575 15.5826 4.46823 15.583 6.91992L15.5771 7.15625C15.4543 9.57787 13.4521 11.5039 11 11.5039L10.7637 11.498C8.42043 11.379 6.54171 9.49957 6.42285 7.15625L6.41699 6.91992C6.4174 4.389 8.46902 2.33697 11 2.33691L11.2363 2.34277ZM11 3.33691C9.0213 3.33697 7.4174 4.94129 7.41699 6.91992C7.41699 8.89892 9.02105 10.5039 11 10.5039C12.979 10.5039 14.583 8.89894 14.583 6.91992C14.5826 4.94126 12.9787 3.33692 11 3.33691Z"
            fill="#666666" />
        <g clip-path="url(#clip1_2644_68)">
            <path
                d="M14.5 15.2188C14.1539 15.2188 13.8155 15.1161 13.5278 14.9238C13.24 14.7315 13.0157 14.4582 12.8832 14.1384C12.7508 13.8187 12.7161 13.4668 12.7836 13.1273C12.8512 12.7879 13.0178 12.4761 13.2626 12.2313C13.5073 11.9866 13.8191 11.8199 14.1586 11.7524C14.4981 11.6849 14.8499 11.7195 15.1697 11.852C15.4895 11.9844 15.7628 12.2087 15.9551 12.4965C16.1474 12.7843 16.25 13.1226 16.25 13.4688C16.25 13.9329 16.0656 14.378 15.7374 14.7062C15.4092 15.0344 14.9641 15.2188 14.5 15.2188ZM14.5 12.1563C14.2404 12.1563 13.9867 12.2332 13.7708 12.3774C13.555 12.5217 13.3867 12.7267 13.2874 12.9665C13.1881 13.2063 13.1621 13.4702 13.2127 13.7248C13.2634 13.9794 13.3884 14.2133 13.5719 14.3968C13.7555 14.5804 13.9893 14.7054 14.2439 14.756C14.4985 14.8067 14.7624 14.7807 15.0023 14.6813C15.2421 14.582 15.4471 14.4138 15.5913 14.1979C15.7355 13.9821 15.8125 13.7283 15.8125 13.4688C15.8125 13.1207 15.6742 12.7868 15.4281 12.5407C15.1819 12.2945 14.8481 12.1563 14.5 12.1563Z"
                fill="#101820" />
            <path
                d="M16.0312 18.2813H12.9688C12.6787 18.2813 12.4005 18.166 12.1954 17.9609C11.9902 17.7558 11.875 17.4776 11.875 17.1875V16.3125C11.875 16.2746 11.8849 16.2372 11.9037 16.2043C11.9225 16.1713 11.9495 16.1437 11.9822 16.1244L13.0759 15.4681C13.1253 15.4458 13.1812 15.4426 13.2327 15.4591C13.2843 15.4757 13.3279 15.5107 13.3551 15.5575C13.3824 15.6043 13.3912 15.6596 13.3801 15.7126C13.3689 15.7656 13.3385 15.8125 13.2947 15.8444L12.3125 16.4372V17.1875C12.3125 17.3616 12.3816 17.5285 12.5047 17.6516C12.6278 17.7746 12.7947 17.8438 12.9688 17.8438H16.0312C16.2053 17.8438 16.3722 17.7746 16.4953 17.6516C16.6184 17.5285 16.6875 17.3616 16.6875 17.1875V16.4372L15.7009 15.8444C15.673 15.8318 15.6481 15.8135 15.6277 15.7906C15.6074 15.7678 15.592 15.7409 15.5827 15.7118C15.5734 15.6826 15.5702 15.6518 15.5736 15.6214C15.5769 15.591 15.5865 15.5616 15.6019 15.5351C15.6173 15.5086 15.6381 15.4857 15.6629 15.4678C15.6877 15.4498 15.716 15.4373 15.7459 15.431C15.7759 15.4247 15.8068 15.4247 15.8367 15.4311C15.8667 15.4375 15.8949 15.4501 15.9197 15.4681L17.0134 16.1244C17.0469 16.1432 17.0748 16.1705 17.0944 16.2035C17.114 16.2365 17.1245 16.2741 17.125 16.3125V17.1875C17.125 17.4776 17.0098 17.7558 16.8046 17.9609C16.5995 18.166 16.3213 18.2813 16.0312 18.2813Z"
                fill="#101820" />
        </g>
    </g>
    <defs>
        <clipPath id="clip0_2644_68">
            <rect width="22" height="22" fill="white" transform="translate(0 0.5)" />
        </clipPath>
        <clipPath id="clip1_2644_68">
            <rect width="7" height="7" fill="white" transform="translate(11 11.5)" />
        </clipPath>
    </defs>
</svg>