<svg width="20" height="21" viewBox="0 0 20 21" fill="none" xmlns="http://www.w3.org/2000/svg">
    <g clip-path="url(#clip0_2642_905)">
        <path
            d="M2.92755 14.6333L4.6994 13.6616C5.00305 13.4956 5.38208 13.6064 5.54794 13.9091C5.71396 14.2119 5.60318 14.5918 5.3006 14.7578L4.09836 15.417C4.87474 16.5993 5.94841 17.5294 7.1875 18.1371V17.375C7.1875 17.0298 7.46735 16.75 7.8125 16.75C8.15765 16.75 8.4375 17.0298 8.4375 17.375V18.6215C8.84405 18.7402 9.2613 18.8286 9.6875 18.88V16.4375C9.6875 16.0923 9.96735 15.8125 10.3125 15.8125C10.6577 15.8125 10.9375 16.0923 10.9375 16.4375V18.9296C11.3636 18.9127 11.7814 18.8631 12.1875 18.7803V14.875C12.1875 14.5298 12.4673 14.25 12.8125 14.25C13.1577 14.25 13.4375 14.5298 13.4375 14.875V18.4117C16.3593 17.28 18.4375 14.4415 18.4375 11.125C18.4375 7.02756 15.2667 3.65674 11.25 3.33722V11.125C11.25 11.3533 11.1256 11.5632 10.9254 11.6731L7.50626 13.5481C7.20322 13.7141 6.82373 13.603 6.65787 13.3006C6.49185 12.9979 6.60263 12.6179 6.90536 12.4519L10 10.755V2.6875C10 2.34235 10.2798 2.0625 10.625 2.0625C15.6221 2.0625 19.6875 6.1279 19.6875 11.125C19.6875 16.1219 15.6221 20.1875 10.625 20.1875C7.31476 20.1875 4.27032 18.3842 2.68005 15.4817C2.51419 15.179 2.62512 14.7993 2.92755 14.6333Z"
            fill="black" fill-opacity="0.6" />
        <path
            d="M1.19873 6.47244C1.36505 6.17185 1.74393 6.06137 2.04605 6.22708L3.42545 6.98346C3.72818 7.14932 3.83896 7.52927 3.67294 7.83185C3.50693 8.13458 3.12668 8.24597 2.82455 8.07935L2.02072 7.63867C1.71967 8.35675 1.5625 9.13632 1.5625 9.92505C1.5625 10.7138 1.71982 11.4933 2.02072 12.2114L6.19003 9.92505L4.69955 9.10764C4.39682 8.94177 4.28604 8.56183 4.45206 8.25925C4.61792 7.95682 4.99771 7.84558 5.30045 8.01175L7.79037 9.37711C7.99057 9.48682 8.11493 9.69678 8.11493 9.92505C8.11493 10.1533 7.99057 10.3633 7.79037 10.473L2.04605 13.6232C1.95084 13.6754 1.84784 13.7001 1.74622 13.7001C1.52603 13.7001 1.31271 13.5838 1.19873 13.3775C0.618896 12.3292 0.3125 11.1354 0.3125 9.92505C0.3125 8.71442 0.618896 7.52057 1.19873 6.47244Z"
            fill="black" fill-opacity="0.6" />
        <path
            d="M8.75595 8.13489C8.65784 8.19302 8.54767 8.22217 8.4375 8.22217C8.3342 8.22217 8.23074 8.19653 8.13705 8.14511L2.73712 5.18399C2.43454 5.01813 2.32361 4.63849 2.48947 4.33575C3.67981 2.1626 5.95901 0.8125 8.4375 0.8125C8.78265 0.8125 9.0625 1.09235 9.0625 1.4375V7.59717C9.0625 7.81796 8.94592 8.02243 8.75595 8.13489ZM7.8125 2.09775C6.24451 2.27567 4.82574 3.11581 3.91678 4.40533L7.8125 6.54156V2.09775Z"
            fill="black" fill-opacity="0.6" />
    </g>
    <defs>
        <clipPath id="clip0_2642_905">
            <rect width="20" height="20" fill="white" transform="matrix(-1 0 0 1 20 0.5)" />
        </clipPath>
    </defs>
</svg>