<svg width="28" height="28" viewBox="0 0 28 28" fill="none" xmlns="http://www.w3.org/2000/svg">
    <path
        d="M24.8779 9.75066L27.0892 13.7585L25.6584 14.5483L18.9066 2.31335L18.5574 1.68054L18.5568 1.67937L19.9889 0.889526L22.2008 4.89851L24.8779 9.75066Z"
        fill="#758289" />
    <path
        d="M24.8785 9.75064H24.878L23.4694 7.19771L22.2008 4.89849H22.2014C23.494 4.18482 25.1082 4.61373 25.884 5.84771C25.9127 5.89283 25.9403 5.93912 25.966 5.98599C26.7055 7.32603 26.2186 9.01119 24.8785 9.75064Z"
        fill="#A7B7C1" />
    <path d="M12.0231 20.4587L16.0983 25.4872L12.9026 27.2503L8.82794 22.2224L12.0231 20.4587Z"
        fill="#303C44" />
    <path opacity="0.2"
        d="M16.0983 25.4872L12.9026 27.2503L8.82794 22.2223L9.54747 21.8251L13.5822 26.8044L16.0584 25.438L16.0983 25.4872Z"
        fill="black" />
    <path
        d="M12.5018 19.3214C12.7057 19.6911 12.5715 20.1563 12.2018 20.3602L12.0231 20.4587L8.82794 22.2223L8.49337 22.4069C8.12306 22.6108 7.65841 22.476 7.4545 22.1069L7.0672 21.405L8.0715 20.8512L11.1108 19.1737L12.1151 18.62L12.5018 19.3214Z"
        fill="#758289" />
    <path opacity="0.2"
        d="M12.4209 19.1749L11.4184 19.7274L8.37911 21.405L7.37482 21.9587L7.48204 22.1532C7.47267 22.138 7.46329 22.1227 7.4545 22.1069L7.0672 21.405L8.0715 20.8512L11.1108 19.1737L12.1151 18.62L12.4209 19.1749Z"
        fill="#303C44" />
    <path
        d="M4.77207 20.3239L2.9123 21.3505L1.79316 19.322L0.675781 17.297L2.53555 16.271L3.64707 18.2849L4.77207 20.3239Z"
        fill="#303C44" />
    <path d="M8.32755 13.0741L10.5641 17.1276L6.63185 19.2968L4.39532 15.2432L8.32755 13.0741Z"
        fill="#A7B7C1" />
    <path
        d="M13.0473 17.2319L12.9723 17.0954L11.2748 14.0186L9.63948 11.0555L9.5639 10.919C9.35999 10.5493 8.89534 10.4145 8.52503 10.619L2.21214 14.1024C1.84241 14.3063 1.70882 14.7716 1.91214 15.1413L2.53558 16.271L3.6471 18.2848L4.7721 20.3239L5.39612 21.4542C5.59944 21.8233 6.06468 21.9581 6.4344 21.7542L7.06722 21.405L8.07151 20.8512L11.1108 19.1737L12.1151 18.62L12.7473 18.2708C13.1176 18.0663 13.2512 17.6011 13.0473 17.2319ZM6.63186 19.2968L5.50159 17.2477L4.39534 15.2432L8.32757 13.0741L9.42093 15.0557L10.5641 17.1276L6.63186 19.2968Z"
        fill="#526471" />
    <path
        d="M25.6572 14.5489L12.9723 17.0954L11.2748 14.0186L9.63947 11.0555L18.5574 1.68054L18.9067 2.31335L22.042 7.99636L25.6572 14.5489Z"
        fill="#303C44" />
    <path opacity="0.2"
        d="M25.6572 14.5489L12.9723 17.0954L13.0473 17.2319C13.2512 17.601 13.1176 18.0663 12.7473 18.2708L12.115 18.62L11.1107 19.1737L8.07147 20.8512L7.06717 21.4049L6.43436 21.7541C6.06464 21.9581 5.5994 21.8233 5.39608 21.4542L4.77206 20.3239L2.91229 21.3504L1.79315 19.3219L3.64706 18.2848L5.50155 17.2477L9.42089 15.0557L11.2748 14.0186L22.042 7.99634L25.6572 14.5489Z"
        fill="url(#paint0_linear_2620_15064)" />
    <path opacity="0.2"
        d="M24.878 9.75065L23.4694 7.19772L25.884 5.84772C25.9127 5.89283 25.9403 5.93912 25.966 5.986C26.7055 7.32604 26.2186 9.01119 24.8785 9.75065H24.878Z"
        fill="url(#paint1_linear_2620_15064)" />
    <defs>
        <linearGradient id="paint0_linear_2620_15064" x1="11.819" y1="13.5335" x2="15.7182"
            y2="20.2871" gradientUnits="userSpaceOnUse">
            <stop />
            <stop offset="1" stop-color="white" stop-opacity="0" />
        </linearGradient>
        <linearGradient id="paint1_linear_2620_15064" x1="24.6437" y1="6.51972" x2="26.1017"
            y2="9.04507" gradientUnits="userSpaceOnUse">
            <stop />
            <stop offset="1" stop-color="white" stop-opacity="0" />
        </linearGradient>
    </defs>
</svg>