<svg width="28" height="24" viewBox="0 0 28 24" fill="none" xmlns="http://www.w3.org/2000/svg">
    <path
        d="M22.8634 22.4724V22.7384C22.8634 23.2206 22.4726 23.612 21.9898 23.612H6.01011C5.52729 23.612 5.13647 23.2206 5.13647 22.7384V22.4724C5.13647 21.9901 5.52729 21.5993 6.01011 21.5993H21.9898C22.4726 21.5993 22.8634 21.9901 22.8634 22.4724Z"
        fill="#C98B0E" />
    <path opacity="0.2"
        d="M22.8634 22.4724V22.7384C22.8634 22.8386 22.8464 22.9352 22.8148 23.0249C22.6964 22.6839 22.3718 22.439 21.9898 22.439H6.01011C5.62808 22.439 5.30347 22.6839 5.18511 23.0249C5.15347 22.9352 5.13647 22.8386 5.13647 22.7384V22.4724C5.13647 21.9901 5.52729 21.5993 6.01011 21.5993H21.9898C22.4726 21.5993 22.8634 21.9901 22.8634 22.4724Z"
        fill="black" />
    <path
        d="M4.3156 9.85303C4.06599 10.2989 3.6406 10.6335 3.13318 10.7624C2.98376 10.8005 2.82673 10.821 2.66501 10.821C1.62087 10.821 0.77478 9.9749 0.77478 8.93076C0.77478 7.88662 1.62087 7.04053 2.66501 7.04053C3.70916 7.04053 4.55525 7.88662 4.55525 8.93076C4.55525 9.26592 4.46794 9.58057 4.3156 9.85303Z"
        fill="#2FC1F1" />
    <path
        d="M14 0.676086C15.4261 0.676086 16.5822 1.83214 16.5822 3.25831C16.5822 4.52335 15.6716 5.57687 14.4693 5.79718C14.3169 5.8253 14.1605 5.83995 14 5.83995C13.8394 5.83995 13.683 5.8253 13.5306 5.79718C12.3283 5.57687 11.4177 4.52335 11.4177 3.25831C11.4177 1.83214 12.5738 0.676086 14 0.676086Z"
        fill="#DD6475" />
    <path
        d="M12.2463 3.5219C12.1007 3.5219 11.9827 3.40384 11.9827 3.25823C11.9827 2.14589 12.8876 1.24091 14 1.24091C14.1456 1.24091 14.2637 1.35897 14.2637 1.50458C14.2637 1.65018 14.1456 1.76825 14 1.76825C13.1784 1.76825 12.51 2.43669 12.51 3.25823C12.51 3.40384 12.392 3.5219 12.2463 3.5219Z"
        fill="white" />
    <path
        d="M23.6844 9.85303C23.532 9.58057 23.4447 9.26592 23.4447 8.93076C23.4447 7.88662 24.2908 7.04053 25.3349 7.04053C26.3791 7.04053 27.2258 7.88662 27.2258 8.93076C27.2258 9.9749 26.3791 10.821 25.3349 10.821C25.1732 10.821 25.0162 10.8005 24.8668 10.7624C24.3593 10.6335 23.934 10.2989 23.6844 9.85303Z"
        fill="#77D379" />
    <path
        d="M24.8668 10.7624V10.763L22.0976 21.5993H5.90232L3.13318 10.763V10.7624C3.6406 10.6335 4.06599 10.2989 4.3156 9.85304C5.11951 10.1712 5.99607 10.3446 6.91306 10.3446C9.9324 10.3446 12.5099 8.45675 13.5306 5.79835V5.79718C13.683 5.82531 13.8394 5.83995 14 5.83995C14.1605 5.83995 14.317 5.82531 14.4693 5.79718V5.79835C15.49 8.45734 18.0676 10.3446 21.0869 10.3446C22.0039 10.3446 22.8804 10.1712 23.6843 9.85304C23.934 10.2989 24.3594 10.6335 24.8668 10.7624Z"
        fill="#FFC035" />
    <path
        d="M24.0107 9.19463C23.8651 9.19463 23.7471 9.07656 23.7471 8.93095C23.7471 8.05521 24.4595 7.34271 25.3353 7.34271C25.4809 7.34271 25.5989 7.46078 25.5989 7.60638C25.5989 7.75199 25.4809 7.87006 25.3353 7.87006C24.7503 7.87006 24.2744 8.34595 24.2744 8.93095C24.2744 9.07656 24.1563 9.19463 24.0107 9.19463Z"
        fill="white" />
    <path
        d="M1.34045 9.19463C1.19485 9.19463 1.07678 9.07656 1.07678 8.93095C1.07678 8.05521 1.78928 7.34271 2.66497 7.34271C2.81057 7.34271 2.92864 7.46078 2.92864 7.60638C2.92864 7.75199 2.81057 7.87006 2.66497 7.87006C2.08002 7.87006 1.60413 8.34595 1.60413 8.93095C1.60413 9.07656 1.48612 9.19463 1.34045 9.19463Z"
        fill="white" />
    <path opacity="0.1"
        d="M24.8668 10.7624V10.763L22.0977 21.5993H14V5.83995C14.1605 5.83995 14.317 5.82531 14.4693 5.79718V5.79835C15.49 8.45734 18.0676 10.3446 21.0869 10.3446C22.0039 10.3446 22.8805 10.1712 23.6844 9.85304C23.934 10.2989 24.3594 10.6335 24.8668 10.7624Z"
        fill="url(#paint0_linear_2620_15092)" />
    <defs>
        <linearGradient id="paint0_linear_2620_15092" x1="14" y1="13.6983" x2="24.8668" y2="13.6983"
            gradientUnits="userSpaceOnUse">
            <stop />
            <stop offset="1" stop-color="white" stop-opacity="0" />
        </linearGradient>
    </defs>
</svg>