<svg width="18" height="18" viewBox="0 0 18 18" fill="none" xmlns="http://www.w3.org/2000/svg">
<path d="M12.75 6H9V3.75H7.5V6H3.75C2.95435 6 2.19129 6.31607 1.62868 6.87868C1.06607 7.44129 0.75 8.20435 0.75 9V15.75H15.75V9C15.75 8.20435 15.4339 7.44129 14.8713 6.87868C14.3087 6.31607 13.5456 6 12.75 6ZM14.25 14.25H2.25V12C2.63745 11.9851 3.01773 11.8909 3.36732 11.7232C3.71692 11.5555 4.0284 11.3179 4.2825 11.025C4.38744 10.8641 4.53088 10.7318 4.69982 10.6403C4.86876 10.5488 5.05786 10.5008 5.25 10.5008C5.44214 10.5008 5.63124 10.5488 5.80018 10.6403C5.96912 10.7318 6.11256 10.8641 6.2175 11.025C6.46291 11.3274 6.77272 11.5713 7.12434 11.7388C7.47596 11.9063 7.86053 11.9932 8.25 11.9932C8.63947 11.9932 9.02404 11.9063 9.37566 11.7388C9.72728 11.5713 10.0371 11.3274 10.2825 11.025C10.3874 10.8641 10.5309 10.7318 10.6998 10.6403C10.8688 10.5488 11.0579 10.5008 11.25 10.5008C11.4421 10.5008 11.6312 10.5488 11.8002 10.6403C11.9691 10.7318 12.1126 10.8641 12.2175 11.025C12.4716 11.3179 12.7831 11.5555 13.1327 11.7232C13.4823 11.8909 13.8625 11.9851 14.25 12V14.25ZM14.25 10.5C13.8726 10.4539 13.5268 10.2663 13.2825 9.975C13.0371 9.67257 12.7273 9.42872 12.3757 9.26123C12.024 9.09373 11.6395 9.00682 11.25 9.00682C10.8605 9.00682 10.476 9.09373 10.1243 9.26123C9.77272 9.42872 9.46291 9.67257 9.2175 9.975C9.11256 10.1359 8.96912 10.2682 8.80018 10.3597C8.63124 10.4512 8.44214 10.4992 8.25 10.4992C8.05786 10.4992 7.86876 10.4512 7.69982 10.3597C7.53088 10.2682 7.38744 10.1359 7.2825 9.975C7.03709 9.67257 6.72728 9.42872 6.37566 9.26123C6.02404 9.09373 5.63947 9.00682 5.25 9.00682C4.86053 9.00682 4.47596 9.09373 4.12434 9.26123C3.77272 9.42872 3.46291 9.67257 3.2175 9.975C2.97318 10.2663 2.62738 10.4539 2.25 10.5V9C2.25 8.60218 2.40804 8.22064 2.68934 7.93934C2.97064 7.65804 3.35218 7.5 3.75 7.5H12.75C13.1478 7.5 13.5294 7.65804 13.8107 7.93934C14.092 8.22064 14.25 8.60218 14.25 9V10.5ZM8.25 3.1425C8.55831 3.1425 8.854 3.02002 9.07201 2.80201C9.29002 2.584 9.4125 2.28831 9.4125 1.98C9.4125 1.05 8.25 0 8.25 0C8.25 0 7.0875 1.05 7.0875 1.98C7.0875 2.28831 7.20998 2.584 7.42799 2.80201C7.646 3.02002 7.94169 3.1425 8.25 3.1425Z" fill="#12936E"/>
</svg>
