<svg width="3" height="3" viewBox="0 0 3 3" fill="none" xmlns="http://www.w3.org/2000/svg">
<path d="M2.37656 0.0562439H0.623438C0.50782 0.0562439 0.396938 0.105236 0.315183 0.19244C0.233429 0.279644 0.1875 0.397918 0.1875 0.521244V2.38624C0.1875 2.50957 0.233429 2.62784 0.315183 2.71505C0.396938 2.80225 0.50782 2.85124 0.623438 2.85124H2.37188C2.48749 2.85124 2.59837 2.80225 2.68013 2.71505C2.76188 2.62784 2.80781 2.50957 2.80781 2.38624V0.521244C2.80782 0.39878 2.76253 0.281257 2.68179 0.194195C2.60105 0.107133 2.49137 0.0575607 2.37656 0.0562439ZM1.94063 1.92124H1.06406V0.986244H1.94063V1.92124Z" fill="#12936E"/>
</svg>
