<svg width="18" height="19" viewBox="0 0 18 19" fill="none" xmlns="http://www.w3.org/2000/svg">
<g clip-path="url(#clip0_2641_895)">
<path d="M1.66667 10.4167H7.16667C7.40978 10.4167 7.64294 10.3201 7.81485 10.1482C7.98676 9.97627 8.08333 9.74312 8.08333 9.5V2.16667C8.08333 1.92355 7.98676 1.69039 7.81485 1.51849C7.64294 1.34658 7.40978 1.25 7.16667 1.25H1.66667C1.42355 1.25 1.19039 1.34658 1.01849 1.51849C0.846577 1.69039 0.75 1.92355 0.75 2.16667V9.5C0.75 9.74312 0.846577 9.97627 1.01849 10.1482C1.19039 10.3201 1.42355 10.4167 1.66667 10.4167ZM0.75 16.8333C0.75 17.0764 0.846577 17.3096 1.01849 17.4815C1.19039 17.6534 1.42355 17.75 1.66667 17.75H7.16667C7.40978 17.75 7.64294 17.6534 7.81485 17.4815C7.98676 17.3096 8.08333 17.0764 8.08333 16.8333V13.1667C8.08333 12.9236 7.98676 12.6904 7.81485 12.5185C7.64294 12.3466 7.40978 12.25 7.16667 12.25H1.66667C1.42355 12.25 1.19039 12.3466 1.01849 12.5185C0.846577 12.6904 0.75 12.9236 0.75 13.1667V16.8333ZM9.91667 16.8333C9.91667 17.0764 10.0132 17.3096 10.1852 17.4815C10.3571 17.6534 10.5902 17.75 10.8333 17.75H16.3333C16.5764 17.75 16.8096 17.6534 16.9815 17.4815C17.1534 17.3096 17.25 17.0764 17.25 16.8333V10.4167C17.25 10.1736 17.1534 9.94039 16.9815 9.76849C16.8096 9.59658 16.5764 9.5 16.3333 9.5H10.8333C10.5902 9.5 10.3571 9.59658 10.1852 9.76849C10.0132 9.94039 9.91667 10.1736 9.91667 10.4167V16.8333ZM10.8333 7.66667H16.3333C16.5764 7.66667 16.8096 7.57009 16.9815 7.39818C17.1534 7.22627 17.25 6.99312 17.25 6.75V2.16667C17.25 1.92355 17.1534 1.69039 16.9815 1.51849C16.8096 1.34658 16.5764 1.25 16.3333 1.25H10.8333C10.5902 1.25 10.3571 1.34658 10.1852 1.51849C10.0132 1.69039 9.91667 1.92355 9.91667 2.16667V6.75C9.91667 6.99312 10.0132 7.22627 10.1852 7.39818C10.3571 7.57009 10.5902 7.66667 10.8333 7.66667Z" stroke="black" stroke-opacity="0.6" stroke-width="1.2"/>
</g>
<defs>
<clipPath id="clip0_2641_895">
<rect width="18" height="19" fill="white"/>
</clipPath>
</defs>
</svg>
