<svg width="23" height="25" viewBox="0 0 23 25" fill="none" xmlns="http://www.w3.org/2000/svg">
    <g clip-path="url(#clip0_2648_72)">
        <path
            d="M0.189667 16.3759L3.13854 18.504L4.27856 21.9342C4.30476 22.0128 4.35529 22.0813 4.423 22.1299C4.49071 22.1786 4.57218 22.205 4.6559 22.2054L8.30555 22.2224L11.2664 24.333C11.3344 24.3815 11.4161 24.4076 11.5 24.4076C11.5839 24.4076 11.6656 24.3815 11.7336 24.333L14.6944 22.2204L18.3441 22.2034C18.4278 22.203 18.5093 22.1766 18.577 22.128C18.6447 22.0793 18.6952 22.0108 18.7214 21.9322L19.8615 18.504L22.8099 16.3759C22.8777 16.327 22.9282 16.2583 22.9542 16.1794C22.9803 16.1005 22.9805 16.0156 22.9549 15.9366L21.838 12.5L22.9561 9.06343C22.9817 8.98447 22.9816 8.89953 22.9556 8.82067C22.9297 8.7418 22.8792 8.67302 22.8115 8.62408L19.8615 6.49606L18.7214 3.06777C18.6952 2.98917 18.6447 2.9207 18.577 2.87203C18.5093 2.82337 18.4278 2.79698 18.3441 2.79658L14.6944 2.77961L11.7336 0.668953C11.6656 0.620458 11.5839 0.59436 11.5 0.59436C11.4161 0.59436 11.3344 0.620458 11.2664 0.668953L8.30555 2.77961L4.6559 2.79658C4.57218 2.79698 4.49071 2.82337 4.423 2.87203C4.35529 2.9207 4.30476 2.98917 4.27856 3.06777L3.13854 6.49606L0.190066 8.62408C0.122271 8.67297 0.0717791 8.74173 0.0457596 8.8206C0.01974 8.89946 0.0195155 8.98443 0.045118 9.06343L1.16198 12.5L0.0439201 15.9366C0.0184008 16.0157 0.0187487 16.1007 0.044914 16.1796C0.0710793 16.2584 0.12173 16.3271 0.189667 16.3759ZM1.96139 12.6208C1.98692 12.5422 1.98692 12.4578 1.96139 12.3792L0.893642 9.09343L3.71354 7.05895C3.7813 7.0097 3.83172 6.94067 3.85769 6.86158L4.94779 3.58251L8.43812 3.56632C8.52123 3.56586 8.60214 3.53993 8.66972 3.49211L11.5 1.47579L14.3307 3.49408C14.3982 3.54191 14.4792 3.56784 14.5623 3.56829L18.0526 3.58448L19.1431 6.86356C19.1688 6.94266 19.2191 7.01173 19.2869 7.06093L22.1063 9.0954L21.0386 12.3812C21.0131 12.4597 21.0131 12.5442 21.0386 12.6228L22.1063 15.9086L19.2865 17.9411C19.2187 17.9903 19.1683 18.0593 19.1423 18.1384L18.0522 21.4175L14.5619 21.4337C14.4788 21.4341 14.3978 21.4601 14.3303 21.5079L11.5 23.5242L8.66932 21.5059C8.60174 21.4581 8.52083 21.4322 8.43772 21.4317L4.94739 21.4155L3.85689 18.1365C3.83118 18.0573 3.78087 17.9883 3.71314 17.9391L0.893642 15.9066L1.96139 12.6208Z"
            fill="black" fill-opacity="0.6" />
        <path
            d="M11.5 20.3947C13.0795 20.3947 14.6235 19.9317 15.9368 19.0642C17.2502 18.1967 18.2738 16.9638 18.8782 15.5212C19.4827 14.0786 19.6408 12.4912 19.3327 10.9598C19.0245 9.42838 18.2639 8.02167 17.147 6.91757C16.0302 5.81347 14.6072 5.06157 13.058 4.75695C11.5089 4.45233 9.90311 4.60868 8.44384 5.20621C6.98457 5.80374 5.73731 6.81563 4.85979 8.11391C3.98226 9.4122 3.51389 10.9386 3.51389 12.5C3.51632 14.5931 4.35849 16.5997 5.85565 18.0798C7.35281 19.5598 9.38269 20.3923 11.5 20.3947ZM11.5 5.39473C12.9215 5.39473 14.3112 5.81145 15.4932 6.59218C16.6751 7.37292 17.5964 8.48261 18.1404 9.78093C18.6844 11.0792 18.8267 12.5079 18.5494 13.8862C18.2721 15.2644 17.5875 16.5305 16.5823 17.5242C15.5771 18.5179 14.2964 19.1946 12.9022 19.4687C11.508 19.7429 10.0628 19.6022 8.74946 19.0644C7.43612 18.5266 6.31358 17.6159 5.52381 16.4475C4.73404 15.279 4.3125 13.9053 4.3125 12.5C4.31472 10.6162 5.07268 8.81026 6.42012 7.47824C7.76755 6.14622 9.59443 5.39693 11.5 5.39473Z"
            fill="black" fill-opacity="0.6" />
        <path
            d="M9.10416 11.7105C9.42007 11.7105 9.72887 11.6179 9.99153 11.4444C10.2542 11.2709 10.4589 11.0243 10.5798 10.7358C10.7007 10.4473 10.7323 10.1298 10.6707 9.82355C10.6091 9.51727 10.4569 9.23593 10.2336 9.01511C10.0102 8.79429 9.7256 8.64391 9.41577 8.58298C9.10594 8.52206 8.78479 8.55333 8.49293 8.67283C8.20108 8.79234 7.95163 8.99472 7.77612 9.25438C7.60062 9.51403 7.50694 9.8193 7.50694 10.1316C7.50694 10.5504 7.67522 10.952 7.97476 11.2481C8.2743 11.5442 8.68056 11.7105 9.10416 11.7105ZM9.10416 9.34212C9.26212 9.34212 9.41652 9.38842 9.54785 9.47517C9.67918 9.56192 9.78154 9.68521 9.84199 9.82947C9.90243 9.97373 9.91825 10.1325 9.88743 10.2856C9.85662 10.4388 9.78056 10.5794 9.66887 10.6898C9.55718 10.8002 9.41488 10.8754 9.25997 10.9059C9.10505 10.9364 8.94448 10.9207 8.79855 10.861C8.65262 10.8012 8.5279 10.7 8.44014 10.5702C8.35239 10.4404 8.30555 10.2877 8.30555 10.1316C8.30555 9.92221 8.38969 9.7214 8.53946 9.57335C8.68923 9.42529 8.89236 9.34212 9.10416 9.34212Z"
            fill="black" fill-opacity="0.6" />
        <path
            d="M13.8958 13.2895C13.5799 13.2895 13.2711 13.3821 13.0085 13.5556C12.7458 13.7291 12.5411 13.9757 12.4202 14.2642C12.2993 14.5527 12.2677 14.8702 12.3293 15.1765C12.3909 15.4828 12.543 15.7641 12.7664 15.9849C12.9898 16.2057 13.2744 16.3561 13.5842 16.417C13.8941 16.478 14.2152 16.4467 14.5071 16.3272C14.7989 16.2077 15.0484 16.0053 15.2239 15.7457C15.3994 15.486 15.4931 15.1807 15.4931 14.8684C15.4931 14.4497 15.3248 14.0481 15.0252 13.752C14.7257 13.4558 14.3194 13.2895 13.8958 13.2895ZM13.8958 15.6579C13.7379 15.6579 13.5835 15.6116 13.4521 15.5249C13.3208 15.4381 13.2185 15.3148 13.158 15.1706C13.0976 15.0263 13.0817 14.8676 13.1126 14.7144C13.1434 14.5613 13.2194 14.4206 13.3311 14.3102C13.4428 14.1998 13.5851 14.1246 13.74 14.0941C13.8949 14.0637 14.0555 14.0793 14.2014 14.1391C14.3474 14.1988 14.4721 14.3 14.5599 14.4298C14.6476 14.5597 14.6944 14.7123 14.6944 14.8684C14.6944 15.0778 14.6103 15.2786 14.4605 15.4267C14.3108 15.5747 14.1076 15.6579 13.8958 15.6579Z"
            fill="black" fill-opacity="0.6" />
        <path
            d="M7.85913 14.8684C7.85883 15.1118 7.9317 15.3498 8.06848 15.5521C8.20526 15.7544 8.39979 15.912 8.62736 16.0048C8.85493 16.0976 9.10526 16.1215 9.34657 16.0733C9.58788 16.0252 9.80928 15.9073 9.98264 15.7345L14.7428 10.9692C14.9649 10.7458 15.0895 10.4451 15.0895 10.1318C15.0895 9.81851 14.9649 9.51776 14.7428 9.29436C14.514 9.08078 14.2113 8.96179 13.8966 8.96179C13.582 8.96179 13.2793 9.08078 13.0505 9.29436L8.22809 14C8.1115 14.1134 8.01885 14.2486 7.95552 14.3977C7.89218 14.5467 7.85942 14.7068 7.85913 14.8684ZM8.78911 14.5605L13.6139 9.85213C13.6504 9.81268 13.6947 9.78097 13.7439 9.75894C13.7932 9.7369 13.8465 9.72498 13.9006 9.72392C13.9547 9.72286 14.0084 9.73266 14.0585 9.75274C14.1086 9.77283 14.1541 9.80277 14.1922 9.84074C14.2302 9.87872 14.2601 9.92395 14.28 9.97369C14.2998 10.0234 14.3092 10.0766 14.3077 10.1301C14.3061 10.1835 14.2936 10.2361 14.2708 10.2846C14.2481 10.3331 14.2156 10.3765 14.1753 10.4123L9.41563 15.1795C9.37451 15.2202 9.3257 15.2524 9.27198 15.2744C9.21825 15.2965 9.16067 15.3078 9.10251 15.3078C9.04435 15.3078 8.98676 15.2965 8.93302 15.2746C8.87928 15.2526 8.83045 15.2203 8.78931 15.1797C8.74818 15.1391 8.71554 15.0908 8.69327 15.0377C8.67099 14.9846 8.65952 14.9277 8.6595 14.8702C8.65948 14.8127 8.67092 14.7557 8.69316 14.7026C8.7154 14.6495 8.748 14.6012 8.78911 14.5605Z"
            fill="black" fill-opacity="0.6" />
    </g>
    <defs>
        <clipPath id="clip0_2648_72">
            <rect width="23" height="24" fill="white" transform="translate(0 0.5)" />
        </clipPath>
    </defs>
</svg>