<svg width="24" height="25" viewBox="0 0 24 25" fill="none" xmlns="http://www.w3.org/2000/svg">
<path d="M3.6778 0H20.3222C22.4864 0 24 1.47675 24 3.42809C24 5.37983 22.4864 6.85658 20.3222 6.85658H19.7005V15.8373C19.7005 16.3106 19.2862 16.695 18.7754 16.695H14.0458V19.9232H14.1869C16.6929 19.9232 18.74 21.8203 18.74 24.1427C18.74 24.616 18.3257 25 17.8145 25H6.18555C5.67474 25 5.26042 24.616 5.26042 24.1427C5.26042 21.8203 7.30714 19.9232 9.81314 19.9232H9.95416V16.695H5.22506C4.71382 16.695 4.2995 16.3106 4.2995 15.8373V6.85658H3.6778C1.51364 6.85658 0 5.37983 0 3.42809C0 1.47675 1.51364 0 3.6778 0ZM12.1947 16.695H11.8053V20.7809C11.8053 21.2543 11.3905 21.6383 10.8797 21.6383H9.81314C8.67933 21.6383 7.66514 22.3046 7.2757 23.2849H16.7243C16.3349 22.3046 15.3207 21.6383 14.1869 21.6383H13.1203C12.6095 21.6383 12.1947 21.2543 12.1947 20.7809V16.695Z" fill="white"/>
<path d="M9.53 12L10.18 9.04211L8 7.05263L10.88 6.78947L12 4L13.12 6.78947L16 7.05263L13.82 9.04211L14.47 12L12 10.4316L9.53 12Z" fill="#12936E"/>
</svg>
