<svg width="23" height="23" viewBox="0 0 23 23" fill="none" xmlns="http://www.w3.org/2000/svg">
    <path
        d="M8.36457 23H7.26041C5.84999 23 4.68645 23 3.76561 22.881C2.79895 22.756 1.94582 22.485 1.26249 21.828C0.579157 21.172 0.295823 20.353 0.165615 19.425C0.0416566 18.541 0.0416566 17.425 0.0416566 16.07V11.77C0.0416566 10.032 0.0395733 8.823 0.591657 7.764C1.14374 6.704 2.15103 5.98 3.59999 4.938L5.92707 3.263C7.08749 2.428 8.03124 1.748 8.85936 1.286C9.72291 0.803 10.5542 0.5 11.5 0.5C12.4458 0.5 13.2781 0.803 14.1427 1.286C14.9708 1.748 15.9135 2.428 17.075 3.263L19.4 4.938C20.8489 5.98 21.8573 6.704 22.4083 7.764C22.9604 8.823 22.9604 10.032 22.9583 11.77V16.07C22.9583 17.425 22.9583 18.541 22.8344 19.425C22.7052 20.353 22.4219 21.172 21.7385 21.828C21.0542 22.485 20.201 22.756 19.2344 22.881C18.3135 23 17.151 23 15.7406 23H8.36457ZM7.12499 4.9L5.04166 6.4C3.32291 7.638 2.76041 8.074 2.4552 8.658C2.15103 9.242 2.12499 9.937 2.12499 12V16C2.12499 17.442 2.12707 18.424 2.2302 19.159C2.32916 19.865 2.50311 20.192 2.73541 20.414C2.9677 20.637 3.30832 20.804 4.04374 20.899C4.80832 20.998 5.83124 20.999 7.33332 20.999V14.5C7.33332 13.837 7.60769 13.2011 8.09607 12.7322C8.58444 12.2634 9.24682 12 9.93749 12H13.0625C13.7532 12 14.4155 12.2634 14.9039 12.7322C15.3923 13.2011 15.6667 13.837 15.6667 14.5V21C17.1698 21 18.1917 20.998 18.9573 20.899C19.6927 20.804 20.0333 20.637 20.2646 20.414C20.4969 20.192 20.6708 19.864 20.7698 19.158C20.8729 18.424 20.875 17.442 20.875 16V12C20.875 9.937 20.8489 9.242 20.5448 8.658C20.2417 8.074 19.6781 7.638 17.9583 6.4L15.875 4.9C14.6521 4.019 13.8052 3.411 13.0937 3.014C12.4062 2.63 11.9427 2.5 11.5 2.5C11.0573 2.5 10.5937 2.63 9.90624 3.014C9.19582 3.411 8.34895 4.019 7.12499 4.9ZM13.5833 21V14.5C13.5833 14.3674 13.5285 14.2402 13.4308 14.1464C13.3331 14.0527 13.2006 14 13.0625 14H9.93749C9.79936 14 9.66688 14.0527 9.5692 14.1464C9.47153 14.2402 9.41666 14.3674 9.41666 14.5V21H13.5833Z"
        fill="#76D7A1" />
</svg>