<svg width="31" height="30" viewBox="0 0 31 30" fill="none" xmlns="http://www.w3.org/2000/svg">
    <path
        d="M18.8965 25.4465H23.4501C23.8937 25.4465 24.2537 25.0865 24.2537 24.6429V15H24.2869C24.1079 14.9111 23.9387 14.8018 23.7833 14.6722L23.3537 14.3132C23.254 14.2318 23.1104 14.2318 23.0108 14.3143L22.8351 14.4611C22.2083 14.9818 21.4197 15.2679 20.6054 15.2679H20.3633C19.5544 15.2679 18.7701 14.9861 18.1465 14.4707L17.9494 14.3079C17.8497 14.2265 17.7072 14.2265 17.6087 14.3079L17.4104 14.4718C16.7858 14.9861 16.0015 15.2679 15.1937 15.2679H15.0469C14.2487 15.2679 13.474 14.9936 12.8547 14.4911L12.6233 14.3036C12.5237 14.2232 12.3812 14.2243 12.2837 14.3057L12.0983 14.4611C11.4715 14.9829 10.6829 15.2679 9.86865 15.2679H9.67794C8.87115 15.2679 8.09008 14.9882 7.46651 14.4761L7.25865 14.3047C7.15901 14.2232 7.01758 14.2232 6.91794 14.3047L6.4133 14.7204C6.28151 14.8286 6.13794 14.9229 5.98794 15H6.03937V24.6429C6.03937 25.0865 6.39937 25.4465 6.84294 25.4465H11.3965V18.75C11.3965 18.0107 11.9965 17.4107 12.7358 17.4107H17.5572C18.2965 17.4107 18.8965 18.0107 18.8965 18.75V25.4465ZM4.08187 9.37503H26.2112C26.1822 9.2786 26.1512 9.18324 26.1158 9.08896L24.8826 5.73753C24.5997 5.02289 23.9087 4.5536 23.1404 4.5536H7.15365C6.38437 4.5536 5.6933 5.02289 5.41687 5.71932L4.17722 9.08896C4.14187 9.18324 4.1108 9.2786 4.08187 9.37503ZM26.3965 10.9822H3.89651V12.8572C3.89651 13.3007 4.25651 13.6607 4.70008 13.6607H4.8833C5.06972 13.6607 5.24972 13.5965 5.3933 13.4786L5.89794 13.064C6.58901 12.495 7.58758 12.495 8.27865 13.064L8.48651 13.2343C8.82187 13.5097 9.24294 13.6607 9.67794 13.6607H9.86865C10.3069 13.6607 10.7322 13.5075 11.0687 13.2268L11.2551 13.0715C11.9429 12.4982 12.9404 12.4918 13.6347 13.0554L13.8662 13.2418C14.2004 13.5129 14.6172 13.6607 15.0469 13.6607H15.1937C15.6287 13.6607 16.0508 13.5086 16.3872 13.2322L16.5854 13.0682C17.2776 12.4961 18.2794 12.4961 18.9726 13.0682L19.1697 13.2322C19.5051 13.5086 19.9272 13.6607 20.3633 13.6607H20.6054C21.0437 13.6607 21.469 13.5065 21.8065 13.2257L21.9822 13.08C22.6765 12.4993 23.6879 12.4993 24.3822 13.079L24.8129 13.4379C24.9854 13.5815 25.204 13.6607 25.4301 13.6607C25.9647 13.6607 26.3965 13.229 26.3965 12.6965V10.9822ZM25.8608 15.2325V24.6429C25.8608 25.9747 24.7819 27.0536 23.4501 27.0536H6.84294C5.51115 27.0536 4.43222 25.9747 4.43222 24.6429V15.2529C3.22687 15.12 2.28937 14.0979 2.28937 12.8572V10.6618C2.28937 9.93432 2.41794 9.21432 2.66865 8.53289L3.9158 5.14503C4.44294 3.81753 5.72544 2.94646 7.15365 2.94646H23.1404C24.5676 2.94646 25.8501 3.81753 26.3837 5.16324L27.6244 8.53289C27.8751 9.21432 28.0037 9.93432 28.0037 10.6618V12.6965C28.0037 13.9704 27.0769 15.0279 25.8608 15.2325ZM17.2894 25.4465V19.0179H13.0037V25.4465H17.2894Z"
        fill="#B1FFBF" fill-opacity="0.63" />
</svg>