<svg width="15" height="17" viewBox="0 0 15 17" fill="none" xmlns="http://www.w3.org/2000/svg">
<path d="M7.49998 4.92125C7.41396 4.92026 7.33014 4.89215 7.25907 4.84046C7.188 4.78877 7.13286 4.71581 7.10058 4.63076C7.0683 4.54571 7.06034 4.45237 7.07768 4.3625C7.09503 4.27263 7.13691 4.19025 7.19806 4.12571C7.25921 4.06118 7.33689 4.01739 7.42133 3.99985C7.50576 3.98231 7.59317 3.9918 7.67255 4.02714C7.75194 4.06248 7.81975 4.12208 7.86744 4.19843C7.91514 4.27479 7.9406 4.36449 7.9406 4.45625C7.9406 4.51773 7.92917 4.57861 7.90697 4.63536C7.88477 4.6921 7.85224 4.74359 7.81126 4.78683C7.77029 4.83008 7.72167 4.86422 7.66824 4.88729C7.61481 4.91037 7.55762 4.92191 7.49998 4.92125Z" fill="#12936E"/>
<path d="M8.36719 13.7912H2.24531C2.12969 13.7912 2.01881 13.7423 1.93706 13.6551C1.8553 13.5678 1.80937 13.4496 1.80937 13.3262V3.99125C1.80937 3.86792 1.8553 3.74965 1.93706 3.66244C2.01881 3.57524 2.12969 3.52625 2.24531 3.52625H12.7453C12.8609 3.52625 12.9718 3.57524 13.0536 3.66244C13.1353 3.74965 13.1813 3.86792 13.1813 3.99125V5.39125H3.12187C3.00564 5.39125 2.89416 5.4405 2.81196 5.52818C2.72977 5.61585 2.68359 5.73476 2.68359 5.85875C2.68359 5.98274 2.72977 6.10165 2.81196 6.18932C2.89416 6.27699 3.00564 6.32625 3.12187 6.32625H13.1859V8.65625C13.1859 8.78024 13.2321 8.89915 13.3143 8.98682C13.3965 9.07449 13.508 9.12375 13.6242 9.12375C13.7405 9.12375 13.8519 9.07449 13.9341 8.98682C14.0163 8.89915 14.0625 8.78024 14.0625 8.65625V3.99125C14.0625 3.8074 14.0286 3.62535 13.9626 3.45549C13.8966 3.28564 13.8 3.1313 13.6781 3.0013C13.5562 2.8713 13.4115 2.76817 13.2523 2.69782C13.093 2.62746 12.9224 2.59125 12.75 2.59125H2.24531C1.89803 2.59257 1.56539 2.74065 1.32026 3.00306C1.07514 3.26547 0.937498 3.62081 0.9375 3.99125V13.3212C0.9375 13.6926 1.07578 14.0486 1.32192 14.3112C1.56806 14.5737 1.9019 14.7212 2.25 14.7212H8.36719C8.48343 14.7212 8.59491 14.672 8.6771 14.5843C8.75929 14.4966 8.80547 14.3777 8.80547 14.2537C8.80547 14.1298 8.75929 14.0108 8.6771 13.9232C8.59491 13.8355 8.48343 13.7862 8.36719 13.7862V13.7912Z" fill="#12936E"/>
<path d="M13.6265 10.9863H12.9328L13.0594 10.8513C13.1414 10.7637 13.1875 10.645 13.1875 10.5213C13.1875 10.3975 13.1414 10.2788 13.0594 10.1913C12.9773 10.1037 12.866 10.0546 12.75 10.0546C12.6339 10.0546 12.5227 10.1037 12.4406 10.1913L11.8734 10.7963L11.3109 10.1963C11.2703 10.1526 11.222 10.1179 11.1688 10.0941C11.1156 10.0704 11.0585 10.058 11.0009 10.0578C10.9432 10.0576 10.886 10.0695 10.8327 10.0928C10.7793 10.1161 10.7308 10.1504 10.6898 10.1938C10.6489 10.2371 10.6164 10.2886 10.5941 10.3454C10.5718 10.4021 10.5602 10.463 10.56 10.5245C10.5598 10.586 10.5709 10.647 10.5928 10.7039C10.6147 10.7608 10.6468 10.8126 10.6875 10.8563L10.814 10.9913H10.1297C10.014 10.9913 9.90316 11.0402 9.82141 11.1275C9.73965 11.2147 9.69373 11.3329 9.69373 11.4563V14.2563C9.69373 14.3796 9.73965 14.4979 9.82141 14.5851C9.90316 14.6723 10.014 14.7213 10.1297 14.7213H13.6312C13.746 14.7199 13.8557 14.6704 13.9365 14.5833C14.0172 14.4962 14.0625 14.3787 14.0625 14.2563V11.4563C14.0631 11.3948 14.0523 11.3338 14.0306 11.2768C14.009 11.2198 13.977 11.1679 13.9365 11.1242C13.8959 11.0805 13.8477 11.0458 13.7945 11.0221C13.7413 10.9984 13.6842 10.9863 13.6265 10.9863ZM10.5656 11.9213H11.4328V13.7863H10.5656V11.9213ZM13.1906 13.7863H12.3094V11.9213H13.1906V13.7863Z" fill="#12936E"/>
<path d="M5.31091 7.25125C5.31091 7.12793 5.26498 7.00965 5.18323 6.92245C5.10148 6.83525 4.99059 6.78625 4.87498 6.78625H3.12185C3.00623 6.78625 2.89535 6.83525 2.8136 6.92245C2.73184 7.00965 2.68591 7.12793 2.68591 7.25125V9.11626C2.68591 9.23958 2.73184 9.35786 2.8136 9.44506C2.89535 9.53226 3.00623 9.58126 3.12185 9.58126H4.87498C4.99059 9.58126 5.10148 9.53226 5.18323 9.44506C5.26498 9.35786 5.31091 9.23958 5.31091 9.11626V7.25125ZM4.43435 8.65626H3.56248V7.72125H4.43435V8.65626Z" fill="#12936E"/>
<path d="M4.87498 10.0562H3.12185C3.00623 10.0562 2.89535 10.1052 2.8136 10.1924C2.73184 10.2796 2.68591 10.3979 2.68591 10.5212V12.3862C2.68591 12.5096 2.73184 12.6278 2.8136 12.715C2.89535 12.8023 3.00623 12.8512 3.12185 12.8512H4.87498C4.99059 12.8512 5.10148 12.8023 5.18323 12.715C5.26498 12.6278 5.31091 12.5096 5.31091 12.3862V10.5212C5.31091 10.3979 5.26498 10.2796 5.18323 10.1924C5.10148 10.1052 4.99059 10.0562 4.87498 10.0562ZM4.43904 11.9212H3.56248V10.9862H4.43435L4.43904 11.9212Z" fill="#12936E"/>
<path d="M8.37656 6.78625H6.62344C6.50782 6.78625 6.39694 6.83525 6.31518 6.92245C6.23343 7.00965 6.1875 7.12793 6.1875 7.25125V9.11626C6.1875 9.23958 6.23343 9.35786 6.31518 9.44506C6.39694 9.53226 6.50782 9.58126 6.62344 9.58126H8.37188C8.48749 9.58126 8.59837 9.53226 8.68013 9.44506C8.76188 9.35786 8.80781 9.23958 8.80781 9.11626V7.25125C8.80782 7.12879 8.76253 7.01127 8.68179 6.92421C8.60105 6.83714 8.49137 6.78757 8.37656 6.78625ZM7.93594 8.65626H7.06406V7.72125H7.94063L7.93594 8.65626Z" fill="#12936E"/>
<path d="M10.125 9.12126C10.2406 9.12126 10.3515 9.07227 10.4333 8.98506C10.515 8.89786 10.561 8.77959 10.561 8.65626V7.72126H11.4375V8.65626C11.4375 8.78025 11.4837 8.89916 11.5659 8.98683C11.6481 9.0745 11.7596 9.12376 11.8758 9.12376C11.992 9.12376 12.1035 9.0745 12.1857 8.98683C12.2679 8.89916 12.3141 8.78025 12.3141 8.65626V7.25626C12.3141 7.13293 12.2682 7.01466 12.1864 6.92745C12.1047 6.84025 11.9938 6.79126 11.8781 6.79126H10.125C10.0094 6.79126 9.89852 6.84025 9.81677 6.92745C9.73502 7.01466 9.68909 7.13293 9.68909 7.25626V8.65626C9.68909 8.77959 9.73502 8.89786 9.81677 8.98506C9.89852 9.07227 10.0094 9.12126 10.125 9.12126Z" fill="#12936E"/>
<path d="M8.37656 10.0562H6.62344C6.50782 10.0562 6.39694 10.1052 6.31518 10.1924C6.23343 10.2796 6.1875 10.3979 6.1875 10.5212V12.3862C6.1875 12.5096 6.23343 12.6278 6.31518 12.715C6.39694 12.8023 6.50782 12.8512 6.62344 12.8512H8.37188C8.48749 12.8512 8.59837 12.8023 8.68013 12.715C8.76188 12.6278 8.80781 12.5096 8.80781 12.3862V10.5212C8.80782 10.3988 8.76253 10.2813 8.68179 10.1942C8.60105 10.1071 8.49137 10.0576 8.37656 10.0562ZM7.94063 11.9212H7.06406V10.9862H7.94063V11.9212Z" fill="#12936E"/>
</svg>
