<svg width="30" height="29" viewBox="0 0 30 29" fill="none" xmlns="http://www.w3.org/2000/svg">
    <path
        d="M14.4235 20.4342L5.60917 28.144L5.43015 22.4086L0.000518799 21.267L6.13519 15.9001C6.1345 16.3565 6.19096 16.7793 6.42092 17.1066C7.03715 17.9836 8.64896 17.8595 9.49584 18.4977C10.3344 19.1294 10.7152 20.7586 11.7225 21.0973C12.5239 21.3668 13.5016 20.6816 14.4235 20.4342Z"
        fill="#C9314B" />
    <path opacity="0.2"
        d="M14.4235 20.4342L13.4823 21.2577C12.5639 21.5073 11.591 22.1854 10.793 21.9173C9.7857 21.5786 9.40495 19.9494 8.56634 19.3176C7.71947 18.6795 6.10765 18.8035 5.49143 17.9265C5.26147 17.5993 5.20501 17.1764 5.2057 16.7201L0.00671545 21.2684L0.000518799 21.267L6.13519 15.9001C6.1345 16.3565 6.19096 16.7793 6.42092 17.1066C7.03715 17.9836 8.64896 17.8595 9.49584 18.4977C10.3344 19.1294 10.7152 20.7586 11.7225 21.0973C12.5239 21.3668 13.5016 20.6816 14.4235 20.4342Z"
        fill="black" />
    <path
        d="M23.8645 15.9001L29.9992 21.267L24.5696 22.4086L24.3905 28.144L15.5762 20.4342C16.4981 20.6816 17.4751 21.3668 18.2772 21.0973C19.2845 20.7586 19.6653 19.1294 20.5032 18.4977C21.3501 17.8595 22.9619 17.9836 23.5781 17.1066C23.8081 16.7793 23.8652 16.3565 23.8645 15.9001Z"
        fill="#C9314B" />
    <path
        d="M23.9081 7.65407C24.2235 8.66013 25.6033 9.53643 25.6033 10.6516C25.6033 11.7667 24.2235 12.6423 23.9081 13.6491C23.7043 14.2994 23.8634 15.145 23.8648 15.9001C23.8654 16.3564 23.8083 16.7792 23.5783 17.1065C22.9621 17.9835 21.3503 17.8595 20.5034 18.4976C19.6655 19.1293 19.2847 20.7586 18.2775 21.0973C17.4753 21.3668 16.4983 20.6816 15.5764 20.4342C15.3809 20.3814 15.1881 20.3486 15.0001 20.3486C14.8122 20.3486 14.6194 20.3814 14.4238 20.4342C13.5019 20.6816 12.5242 21.3668 11.7228 21.0973C10.7155 20.7586 10.3347 19.1293 9.49612 18.4976C8.64925 17.8595 7.03743 17.9835 6.42121 17.1065C6.19124 16.7792 6.13479 16.3564 6.13547 15.9001C6.13685 15.145 6.2959 14.2994 6.0921 13.6491C5.77607 12.643 4.39697 11.7667 4.39697 10.6516C4.39697 9.53643 5.77607 8.66013 6.0921 7.65407C6.41914 6.61092 5.81118 5.06511 6.42121 4.19665C7.03743 3.31964 8.64925 3.44371 9.49612 2.80556C10.3347 2.17383 10.7155 0.544588 11.7228 0.205906C12.6943 -0.120655 13.9233 0.954572 15.0001 0.954572C16.077 0.954572 17.3053 -0.120655 18.2775 0.205906C19.2847 0.544588 19.6655 2.17383 20.5034 2.80556C21.3503 3.44371 22.9621 3.31964 23.5783 4.19665C24.1884 5.06511 23.5811 6.61092 23.9081 7.65407ZM21.7379 10.6516C21.7379 6.79773 18.7209 3.67401 15.0001 3.67401C11.2787 3.67401 8.2623 6.79773 8.2623 10.6516C8.2623 14.5047 11.2787 17.6292 15.0001 17.6292C18.7209 17.6292 21.7379 14.5047 21.7379 10.6516Z"
        fill="#DD6475" />
    <g opacity="0.2">
        <path
            d="M25.6031 10.6516C25.6031 9.53648 24.2233 8.66018 23.9079 7.65412C23.5809 6.61097 24.1882 5.06516 23.5781 4.1967C22.9619 3.31969 21.3501 3.44376 20.5032 2.80561C19.6653 2.17388 19.2846 0.544638 18.2773 0.205956C18.0129 0.116829 17.7292 0.131802 17.4352 0.200965C17.4407 0.202391 17.4455 0.20453 17.451 0.205956C18.4583 0.544638 18.8391 2.17388 19.677 2.80561C20.5239 3.44376 22.1357 3.31969 22.7519 4.1967C23.3619 5.06516 22.7547 6.61097 23.0817 7.65412C23.3971 8.66018 24.7768 9.53648 24.7768 10.6516C24.7768 11.7668 23.3971 12.6424 23.0817 13.6491C22.8779 14.2994 23.037 15.1451 23.0383 15.9001C23.039 16.3565 22.9819 16.7793 22.7519 17.1066C22.1357 17.9836 20.5239 17.8595 19.677 18.4977C18.8391 19.1294 18.4583 20.7586 17.451 21.0973C17.4455 21.0994 17.44 21.1009 17.4345 21.1023C17.7292 21.1715 18.0129 21.1864 18.2773 21.0973C19.2846 20.7586 19.6653 19.1294 20.5032 18.4977C21.3501 17.8595 22.9619 17.9836 23.5781 17.1066C23.8081 16.7793 23.8652 16.3565 23.8646 15.9001C23.8632 15.1451 23.7041 14.2994 23.9079 13.6491C24.2233 12.6424 25.6031 11.7668 25.6031 10.6516Z"
            fill="black" />
    </g>
    <path
        d="M21.738 10.6516C21.738 14.5048 18.7209 17.6292 15.0001 17.6292C11.2787 17.6292 8.26233 14.5048 8.26233 10.6516C8.26233 6.79779 11.2787 3.67407 15.0001 3.67407C18.7209 3.67407 21.738 6.79779 21.738 10.6516Z"
        fill="#FFC035" />
    <path opacity="0.2"
        d="M15.5762 20.4342L16.5174 21.2577C17.4359 21.5073 18.4087 22.1854 19.2067 21.9173C20.214 21.5786 20.5948 19.9494 21.4334 19.3176C22.2802 18.6795 23.8921 18.8035 24.5083 17.9265C24.7382 17.5993 24.7947 17.1764 24.794 16.7201L29.993 21.2684L29.9992 21.267L23.8645 15.9001C23.8652 16.3565 23.8088 16.7793 23.5788 17.1066C22.9626 17.9836 21.3508 17.8595 20.5039 18.4977C19.6653 19.1294 19.2845 20.7586 18.2772 21.0973C17.4758 21.3668 16.4981 20.6816 15.5762 20.4342Z"
        fill="black" />
    <path opacity="0.2"
        d="M21.7378 10.6516C21.7378 14.5048 18.7207 17.6292 15 17.6292V3.67407C18.7207 3.67407 21.7378 6.79779 21.7378 10.6516Z"
        fill="url(#paint0_linear_2620_15033)" />
    <defs>
        <linearGradient id="paint0_linear_2620_15033" x1="15" y1="10.6516" x2="21.7378" y2="10.6516"
            gradientUnits="userSpaceOnUse">
            <stop />
            <stop offset="1" stop-color="white" stop-opacity="0" />
        </linearGradient>
    </defs>
</svg>