<svg width="20" height="21" viewBox="0 0 20 21" fill="none" xmlns="http://www.w3.org/2000/svg">
    <path
        d="M13.1583 11.8833L11.2917 10.6417L10.375 12.025L13.5083 14.1167L17.3167 9.35835L16.0167 8.31668L13.1583 11.8833Z"
        fill="black" fill-opacity="0.6" />
    <path d="M16.6667 5.5H3.33334V7.16667H16.6667V5.5Z" fill="black" fill-opacity="0.6" />
    <path d="M10.8333 13.8333H3.33334V15.5H10.8333V13.8333Z" fill="black" fill-opacity="0.6" />
    <path d="M10 9.66666H3.33334V11.3333H10V9.66666Z" fill="black" fill-opacity="0.6" />
    <path d="M16.6667 13.8333H15V15.5H16.6667V13.8333Z" fill="black" fill-opacity="0.6" />
    <path
        d="M17.0333 1.33333H2.96667C2.40087 1.33333 1.85825 1.55809 1.45817 1.95817C1.0581 2.35824 0.833336 2.90087 0.833336 3.46666V17.5333C0.833336 18.0991 1.0581 18.6417 1.45817 19.0418C1.85825 19.4419 2.40087 19.6667 2.96667 19.6667H17.0333C17.5991 19.6667 18.1418 19.4419 18.5418 19.0418C18.9419 18.6417 19.1667 18.0991 19.1667 17.5333V3.46666C19.1667 2.90087 18.9419 2.35824 18.5418 1.95817C18.1418 1.55809 17.5991 1.33333 17.0333 1.33333ZM17.5 17.5333C17.5 17.6571 17.4508 17.7758 17.3633 17.8633C17.2758 17.9508 17.1571 18 17.0333 18H2.96667C2.8429 18 2.7242 17.9508 2.63669 17.8633C2.54917 17.7758 2.5 17.6571 2.5 17.5333V3.46666C2.5 3.34289 2.54917 3.2242 2.63669 3.13668C2.7242 3.04916 2.8429 2.99999 2.96667 2.99999H17.0333C17.1571 2.99999 17.2758 3.04916 17.3633 3.13668C17.4508 3.2242 17.5 3.34289 17.5 3.46666V17.5333Z"
        fill="black" fill-opacity="0.6" />
</svg>