<svg width="22" height="23" viewBox="0 0 22 23" fill="none" xmlns="http://www.w3.org/2000/svg">
    <path
        d="M5.73154 13.8335H16.2745C17.1369 13.8335 17.836 14.5326 17.836 15.395V16.2368C17.836 16.6053 17.7353 16.9658 17.546 17.2798L17.4591 17.4116C16.1639 19.2238 14.0289 20.1674 11.0001 20.1674C8.15957 20.1674 6.10679 19.3374 4.79697 17.7397L4.54502 17.4106C4.30108 17.0682 4.17002 16.6582 4.17002 16.2378V15.395C4.17002 14.5325 4.86916 13.8335 5.73154 13.8335ZM11.0001 2.83737C13.2551 2.83738 15.0829 4.66537 15.0831 6.92038C15.0831 9.17555 13.2552 11.0044 11.0001 11.0044C8.74496 11.0044 6.91709 9.17555 6.91709 6.92038C6.91727 4.66537 8.74507 2.83737 11.0001 2.83737Z"
        stroke="#666666" />
</svg>